<svg xmlns="http://www.w3.org/2000/svg" xmlns:xlink="http://www.w3.org/1999/xlink" viewBox="0 0 559.65 66.59"><defs><style>.cls-1{fill:#fff;}.cls-2{clip-path:url(#clip-path);}</style><clipPath id="clip-path"><line class="cls-1" x1="24.25" y1="66.52" x2="24.25" y2="2.92"/></clipPath></defs><g id="Layer_2" data-name="Layer 2"><g id="Layer_1-2" data-name="Layer 1"><path class="cls-1" d="M24.25,59A24.25,24.25,0,1,1,48.5,34.72,24.28,24.28,0,0,1,24.25,59Zm0-47.6A23.35,23.35,0,1,0,47.6,34.72,23.38,23.38,0,0,0,24.25,11.37Z"/><line class="cls-1" x1="24.25" y1="66.52" x2="24.25" y2="2.92"/><line class="cls-1" x1="24.25" y1="66.52" x2="24.25" y2="2.92"/><rect class="cls-1" x="23.95" y="2.92" width="0.5" height="63.67"/><circle class="cls-1" cx="24.25" cy="34.72" r="11.5"/><circle class="cls-1" cx="24.25" cy="34.72" r="9.3"/><rect class="cls-1" x="33.55" y="33.72" width="526.1" height="2.06"/><path class="cls-1" d="M76,9.62c0-.6-.1-1.3-.1-2a4.74,4.74,0,0,0-.5-1.6,3.84,3.84,0,0,0-1.1-1.1,5.18,5.18,0,0,0-2-.5,2.81,2.81,0,0,0-2.2.9A5.05,5.05,0,0,0,69,7.82a14.29,14.29,0,0,0-.5,3.5v4.1a36.18,36.18,0,0,0,.2,5.7,7.24,7.24,0,0,0,.7,3.3,2.2,2.2,0,0,0,1.3,1.5,4,4,0,0,0,2.2.5l1.6-.2,1.5-.4v-6.6h-3.5v-4.6h9.6v15.1l-1.6.3-2.2.3-2.4.3h-2.2a16.55,16.55,0,0,1-6.2-.9,6.11,6.11,0,0,1-3.5-2.6,11.34,11.34,0,0,1-1.5-4.8q-.3-3-.3-7.2a34.81,34.81,0,0,1,.2-5.5,14.1,14.1,0,0,1,1.2-4.9,8.07,8.07,0,0,1,3.2-3.4A10.74,10.74,0,0,1,72.55,0a13.89,13.89,0,0,1,4.1.6,10.65,10.65,0,0,1,3.1,1.9,6.62,6.62,0,0,1,1.8,3,9.36,9.36,0,0,1,.5,4.1Z"/><path class="cls-1" d="M95.15,30.62a10.21,10.21,0,0,1-4.5-.8,7.11,7.11,0,0,1-2.6-2.3A8.07,8.07,0,0,1,87,24a33.9,33.9,0,0,1-.3-4.5c0-1.4.1-2.7.2-4a10.45,10.45,0,0,1,1.2-3.4,6.81,6.81,0,0,1,2.5-2.3,12.26,12.26,0,0,1,4.6-.8,11.18,11.18,0,0,1,4.5.8,5.75,5.75,0,0,1,2.6,2.3,8.51,8.51,0,0,1,1.1,3.4,18.45,18.45,0,0,1,.2,4c0,1.6-.1,3.1-.2,4.5a7.33,7.33,0,0,1-1.2,3.5,5.8,5.8,0,0,1-2.6,2.3A9.13,9.13,0,0,1,95.15,30.62Zm0-3.7a2.92,2.92,0,0,0,1.3-.3,2.68,2.68,0,0,0,.9-1.2,16.52,16.52,0,0,0,.4-2.3c.1-1,.1-2.3.1-3.9v-2.8a15,15,0,0,0-.4-2.1,3.42,3.42,0,0,0-.9-1.2,2.32,2.32,0,0,0-1.4-.4,2.81,2.81,0,0,0-1.5.4l-.8,1.2a7.46,7.46,0,0,0-.3,2.1c0,1-.1,1.9-.1,2.8s0,2.9.1,3.9a16.52,16.52,0,0,0,.4,2.3,3.61,3.61,0,0,0,.8,1.2Z"/><path class="cls-1" d="M112.35,23.52v1.4l.3,1.1a1.11,1.11,0,0,0,.7.8l1.4.2a3,3,0,0,0,1.5-.5,2.31,2.31,0,0,0,.6-1.6,2.37,2.37,0,0,0-.7-1.8l-1.9-1.3-2.5-1.1a9.15,9.15,0,0,1-2.4-1.3,5.55,5.55,0,0,1-1.9-1.8,4.7,4.7,0,0,1-.9-2.8,4.91,4.91,0,0,1,.9-2.8,4.52,4.52,0,0,1,1.9-1.7,8.07,8.07,0,0,1,2.6-1,14.13,14.13,0,0,1,2.9-.3,9.81,9.81,0,0,1,2.9.4,6.79,6.79,0,0,1,2.3,1.1,6.34,6.34,0,0,1,1.6,2,7,7,0,0,1,.4,2.9h-5.7a6.39,6.39,0,0,0-.5-2.7l-.7-.4h-.8a2.46,2.46,0,0,0-1.5.5,2.19,2.19,0,0,0-.5,1.7,1.61,1.61,0,0,0,.8,1.4A6.8,6.8,0,0,0,115,17l2.5,1.1,2.5,1.4a8.57,8.57,0,0,1,1.8,2,5.32,5.32,0,0,1,.8,2.8,10.18,10.18,0,0,1-.5,2.5,8.59,8.59,0,0,1-1.6,2,6.24,6.24,0,0,1-2.4,1.3,9.48,9.48,0,0,1-3.3.5,19.36,19.36,0,0,1-3.4-.3,4.71,4.71,0,0,1-2.6-1.1,3.92,3.92,0,0,1-1.7-2.1,8.8,8.8,0,0,1-.4-3.6Z"/><path class="cls-1" d="M130.65,23.52a1.71,1.71,0,0,0,0,1.4A1.1,1.1,0,0,0,131,26a1,1,0,0,0,.7.8l1.3.2a3,3,0,0,0,1.5-.5,2.37,2.37,0,0,0,.7-1.6,2.49,2.49,0,0,0-.8-1.8,8.21,8.21,0,0,0-1.9-1.3l-2.4-1.1-2.5-1.3a6.65,6.65,0,0,1-1.9-1.8,4,4,0,0,1-.7-2.8,4.68,4.68,0,0,1,.7-2.8,5.56,5.56,0,0,1,2-1.7,6.77,6.77,0,0,1,2.6-1,12.87,12.87,0,0,1,2.9-.3,9.48,9.48,0,0,1,2.8.4,8.56,8.56,0,0,1,2.4,1.1,7.34,7.34,0,0,1,1.5,2,9.2,9.2,0,0,1,.5,2.9h-5.7a3.77,3.77,0,0,0-.7-2.7l-.6-.4h-.9a1.5,1.5,0,0,0-1.3.5,2.19,2.19,0,0,0-.5,1.7,1.31,1.31,0,0,0,.7,1.4l1.8,1.1,2.5,1.1a13.08,13.08,0,0,1,2.4,1.4,5.15,5.15,0,0,1,1.9,2,4.19,4.19,0,0,1,.8,2.8,4.16,4.16,0,0,1-.6,2.5,4.31,4.31,0,0,1-1.5,2,5.57,5.57,0,0,1-2.5,1.3,8.52,8.52,0,0,1-3.2.5l-3.4-.3a5.79,5.79,0,0,1-2.7-1.1,4.87,4.87,0,0,1-1.6-2.1,8.8,8.8,0,0,1-.4-3.6Z"/><path class="cls-1" d="M149.65,20.72v2l.3,2a3.51,3.51,0,0,0,.8,1.6,1.93,1.93,0,0,0,1.5.6,3.25,3.25,0,0,0,1.3-.3,3.58,3.58,0,0,0,.7-.9c.1-.4.3-.8.4-1.2a5.28,5.28,0,0,0,.1-1.3h5.9a7.72,7.72,0,0,1-2.2,5.4,7.53,7.53,0,0,1-2.6,1.5,11.33,11.33,0,0,1-3.7.5,10.21,10.21,0,0,1-4.5-.8,6.9,6.9,0,0,1-2.5-2.3A10.39,10.39,0,0,1,144,24a33.81,33.81,0,0,1-.1-4.5,28.1,28.1,0,0,1,.1-4,10.45,10.45,0,0,1,1.2-3.4,5.75,5.75,0,0,1,2.6-2.3,11.18,11.18,0,0,1,4.5-.8,12.63,12.63,0,0,1,4.7.9,8.61,8.61,0,0,1,2.6,2.5,15.31,15.31,0,0,1,1.1,3.7c.1,1.6.1,3.1.1,4.6Zm5.3-3.2v-1.6a4.37,4.37,0,0,0-.3-1.6,5.13,5.13,0,0,0-.8-1.2,3.11,3.11,0,0,0-3.2,0,5.75,5.75,0,0,0-.8,1.3,4.37,4.37,0,0,0-.3,1.6v1.5Z"/><path class="cls-1" d="M171.15.52v29.7h-5.8V.52Z"/><path class="cls-1" d="M182.65.52v4.6h-5.8V.52Zm0,29.7h-5.8V9.42h5.8Z"/><path class="cls-1" d="M193.45,11.52h.2a4.06,4.06,0,0,1,2-1.9,7.11,7.11,0,0,1,2.8-.6,6.18,6.18,0,0,1,2,.3,5.56,5.56,0,0,1,1.7.9,7.46,7.46,0,0,1,1.1,1.4,6.5,6.5,0,0,1,.5,1.9v16.7H198V15.92a19.38,19.38,0,0,0-.4-2.4,2.39,2.39,0,0,0-3.3-.3l-.3.3a4.15,4.15,0,0,0-.4,2.4v14.3h-5.8V9.42h5.8Z"/><path class="cls-1" d="M208.85,30.22l3.8-12.9,5-16.8h4.2L217,17.32l-3.8,12.9Z"/><path class="cls-1" d="M226.15,30.22V.52h10l4.6,20.2h.1l4.8-20.2h9.7v29.7h-6V7.32h-.1l-5.7,22.9h-6l-5.4-22.9h-.1v22.9Z"/><path class="cls-1" d="M275.85,26.32c0,.6.1,1.3.1,1.9a16.93,16.93,0,0,1,.3,2h-5.4l-.2-2.8h-.2a5.7,5.7,0,0,1-5.4,3.2,6.28,6.28,0,0,1-2.6-.5,6,6,0,0,1-1.7-1.5,10.36,10.36,0,0,1-1-2.1c-.1-.8-.1-1.6-.2-2.5a9.8,9.8,0,0,1,.9-4.1,6.92,6.92,0,0,1,2.4-2.1,13.79,13.79,0,0,1,3.4-.8h4v-1.7c0-.4-.1-.8-.1-1.2l-.3-1a1.1,1.1,0,0,0-.7-.6l-1.3-.2a2.48,2.48,0,0,0-1.2.2l-.6.7a1.86,1.86,0,0,0-.3,1c0,.4-.1.8-.1,1.2h-5.6a11.22,11.22,0,0,1,.5-3.1,4.83,4.83,0,0,1,1.6-1.9,7.37,7.37,0,0,1,2.4-1.1,15.11,15.11,0,0,1,3-.3,15.94,15.94,0,0,1,4.4.6,4.57,4.57,0,0,1,2.5,1.5,3.46,3.46,0,0,1,1.2,2.2,12.2,12.2,0,0,1,.2,2.7Zm-5.6-6.2h-2l-1.6.4a3.51,3.51,0,0,0-1.1,1,7.88,7.88,0,0,0-.4,2.1c0,.4.1.8.1,1.2a1.73,1.73,0,0,0,.3,1l.6.8a2.77,2.77,0,0,0,1.2.3,2.1,2.1,0,0,0,1.9-.7,4.63,4.63,0,0,0,.8-1.9,7.75,7.75,0,0,0,.2-2.2Z"/><path class="cls-1" d="M286.25,9.42v2.7h.1a5.3,5.3,0,0,1,2.2-2.5,8.78,8.78,0,0,1,3.2-.6v5.2a7.26,7.26,0,0,0-3,.3,3.42,3.42,0,0,0-1.5,1.1,5.08,5.08,0,0,0-.6,1.6c0,.6-.1,1.2-.1,1.7v11.3h-5.8V9.42Z"/><path class="cls-1" d="M292.15,9.42h2.2V6.12l5.8-2.6v5.9h3V13h-3v12.2c.1.3.1.6.2.8a1.28,1.28,0,0,0,.6.5l1.2.2h1v3.6h-3a5.14,5.14,0,0,1-3-.6,3.64,3.64,0,0,1-1.8-1.2,3.51,3.51,0,0,1-.7-1.5l-.3-1.3V13h-2.2Z"/><path class="cls-1" d="M312.25.52v4.6h-5.8V.52Zm0,29.7h-5.8V9.42h5.8Z"/><path class="cls-1" d="M323.15,11.52h.1a4.36,4.36,0,0,1,2.1-1.9,6.3,6.3,0,0,1,2.8-.6l2,.3a6.32,6.32,0,0,1,1.6.9,7.46,7.46,0,0,1,1.1,1.4,6.5,6.5,0,0,1,.5,1.9v16.7h-5.8V15.92a6.76,6.76,0,0,0-.4-2.4,2.21,2.21,0,0,0-3.07-.53l0,0-.5.5a6.76,6.76,0,0,0-.4,2.4v14.3h-5.8V9.42h5.8Z"/><path class="cls-1" d="M347.25,30.22l8.1-29.7h8.3l8.1,29.7h-6.6l-1.7-6.6H355l-1.7,6.6Zm12-24h-.1L356.25,19h6Z"/><path class="cls-1" d="M378.85,23.52a3.3,3.3,0,0,0,0,1.4,3.53,3.53,0,0,0,.3,1.1,1.41,1.41,0,0,0,.7.8l1.3.2a2.53,2.53,0,0,0,1.5-.5,1.71,1.71,0,0,0,.7-1.6,2.11,2.11,0,0,0-.7-1.8,8.21,8.21,0,0,0-1.9-1.3l-2.4-1.1-2.5-1.3a6.65,6.65,0,0,1-1.9-1.8,4,4,0,0,1-.7-2.8A4.68,4.68,0,0,1,374,12a5.56,5.56,0,0,1,2-1.7,6.77,6.77,0,0,1,2.6-1,12.87,12.87,0,0,1,2.9-.3,9.48,9.48,0,0,1,2.8.4,8.56,8.56,0,0,1,2.4,1.1,7.34,7.34,0,0,1,1.5,2,9.2,9.2,0,0,1,.5,2.9h-5.8a3.26,3.26,0,0,0-.6-2.7l-.6-.4h-.9a1.91,1.91,0,0,0-1.4.5,3.4,3.4,0,0,0-.5,1.7,1.61,1.61,0,0,0,.8,1.4l1.8,1.1,2.5,1.1a13.08,13.08,0,0,1,2.4,1.4,5.15,5.15,0,0,1,1.9,2,4.19,4.19,0,0,1,.8,2.8,4.16,4.16,0,0,1-.6,2.5,4.31,4.31,0,0,1-1.5,2,5.57,5.57,0,0,1-2.5,1.3,8.52,8.52,0,0,1-3.2.5l-3.4-.3a5.79,5.79,0,0,1-2.7-1.1,4.87,4.87,0,0,1-1.6-2.1,8.8,8.8,0,0,1-.4-3.6Z"/><path class="cls-1" d="M397.15,23.52v1.4l.2,1.1a1.64,1.64,0,0,0,.8.8l1.3.2a2.53,2.53,0,0,0,1.5-.5,2,2,0,0,0,.7-1.6,2.19,2.19,0,0,0-.8-1.8,9.14,9.14,0,0,0-1.9-1.3l-2.5-1.1a10.64,10.64,0,0,1-2.3-1.3,5.55,5.55,0,0,1-1.9-1.8,4,4,0,0,1-.8-2.8,4.19,4.19,0,0,1,.8-2.8,6.31,6.31,0,0,1,1.9-1.7,7.73,7.73,0,0,1,2.7-1,12,12,0,0,1,2.8-.3,8.87,8.87,0,0,1,2.8.4,5.52,5.52,0,0,1,2.3,1.1,4.48,4.48,0,0,1,1.6,2,4.82,4.82,0,0,1,.4,2.9h-5.7c0-1.4-.1-2.3-.5-2.7l-.7-.4h-.8a3,3,0,0,0-1.5.5,3.4,3.4,0,0,0-.5,1.7,2.23,2.23,0,0,0,.8,1.4,9.49,9.49,0,0,0,1.9,1.1l2.4,1.1a14.27,14.27,0,0,1,2.5,1.4,5.67,5.67,0,0,1,1.8,2,4,4,0,0,1,.8,2.8,5.4,5.4,0,0,1-2.1,4.5,5.18,5.18,0,0,1-2.4,1.3,9,9,0,0,1-3.3.5l-3.4-.3a5.39,5.39,0,0,1-2.6-1.1,5.2,5.2,0,0,1-1.7-2.1,14.1,14.1,0,0,1-.4-3.6Z"/><path class="cls-1" d="M418.75,30.62a10.21,10.21,0,0,1-4.5-.8,7.11,7.11,0,0,1-2.6-2.3,13.08,13.08,0,0,1-1.1-3.5,33.9,33.9,0,0,1-.3-4.5,26.73,26.73,0,0,1,.3-4,8.51,8.51,0,0,1,1.1-3.4,6.81,6.81,0,0,1,2.5-2.3,12.26,12.26,0,0,1,4.6-.8,11.18,11.18,0,0,1,4.5.8,5.75,5.75,0,0,1,2.6,2.3,8.51,8.51,0,0,1,1.1,3.4,13.45,13.45,0,0,1,.3,4A17,17,0,0,1,427,24a7.33,7.33,0,0,1-1.2,3.5,5.57,5.57,0,0,1-2.5,2.3A9.78,9.78,0,0,1,418.75,30.62Zm0-3.7a2.92,2.92,0,0,0,1.3-.3,1.31,1.31,0,0,0,.8-1.2,5.84,5.84,0,0,0,.4-2.3,25.42,25.42,0,0,0,.2-3.9c0-1.1-.1-2-.1-2.8a5.2,5.2,0,0,0-.4-2.1,2.25,2.25,0,0,0-.8-1.2,2,2,0,0,0-1.4-.4,2.81,2.81,0,0,0-1.5.4l-.8,1.2a5.14,5.14,0,0,0-.2,2.1,13.79,13.79,0,0,0-.1,2.8c0,1.6,0,2.9.1,3.9a6,6,0,0,0,.4,2.3,2.37,2.37,0,0,0,.7,1.2Z"/><path class="cls-1" d="M441.85,16.82a5.91,5.91,0,0,0-.6-3.2,2.39,2.39,0,0,0-2-.9,2.32,2.32,0,0,0-1.4.4,2.86,2.86,0,0,0-.7,1.2,5.2,5.2,0,0,0-.4,2.1v2.8c0,1.6,0,2.9.1,3.9a6,6,0,0,0,.4,2.3,2.37,2.37,0,0,0,.7,1.2,3.25,3.25,0,0,0,1.3.3,2.21,2.21,0,0,0,2.1-1.2,5.91,5.91,0,0,0,.6-3.2h5.8c0,2.9-.7,4.9-2.2,6.2s-3.5,1.9-6.3,1.9a9.63,9.63,0,0,1-4.4-.8,7.11,7.11,0,0,1-2.6-2.3,10.39,10.39,0,0,1-1.2-3.5c-.1-1.4-.2-2.9-.2-4.5s.1-2.7.2-4a13.13,13.13,0,0,1,1.1-3.4,9.53,9.53,0,0,1,2.6-2.3,11.72,11.72,0,0,1,4.5-.8c2.7,0,4.8.6,6.2,1.9a7.65,7.65,0,0,1,2.3,5.9Z"/><path class="cls-1" d="M458.25.52v4.6h-5.8V.52Zm0,29.7h-5.8V9.42h5.8Z"/><path class="cls-1" d="M479.15,26.32a5.79,5.79,0,0,0,.1,1.9c.1.7.1,1.3.2,2H474l-.2-2.8h0a7.64,7.64,0,0,1-2.3,2.4,5.31,5.31,0,0,1-3.2.8,5.15,5.15,0,0,1-2.5-.5,5.23,5.23,0,0,1-1.8-1.5,6.88,6.88,0,0,1-1-2.1,6.81,6.81,0,0,1-.2-2.5,7.49,7.49,0,0,1,.9-4.1,5.81,5.81,0,0,1,2.3-2.1,14.57,14.57,0,0,1,3.5-.8h3.9v-2.9l-.2-1a1.64,1.64,0,0,0-.8-.6,4.87,4.87,0,0,0-2.4,0,1.58,1.58,0,0,0-.7.7,3.5,3.5,0,0,0-.3,1c0,.4-.1.8-.1,1.2h-5.7a8.46,8.46,0,0,1,.6-3.1,4.83,4.83,0,0,1,1.6-1.9,6.79,6.79,0,0,1,2.3-1.1l3.1-.3a15.94,15.94,0,0,1,4.4.6,5.2,5.2,0,0,1,2.5,1.5,3.92,3.92,0,0,1,1.1,2.2,6.2,6.2,0,0,1,.3,2.7Zm-5.8-6.2h-2l-1.6.4a2.35,2.35,0,0,0-1,1,5.2,5.2,0,0,0-.4,2.1c0,.4.1.8.1,1.2a1.73,1.73,0,0,0,.3,1l.6.8,1.1.3a1.9,1.9,0,0,0,1.9-.7,4.83,4.83,0,0,0,.9-1.9,5.44,5.44,0,0,0,.1-2.2Z"/><path class="cls-1" d="M481.65,9.42h2.2V6.12l5.8-2.6v5.9h3V13h-3v12.2c.1.3.1.6.2.8a1.28,1.28,0,0,0,.6.5l1.2.2h1v3.6h-3a5.14,5.14,0,0,1-3-.6,3.64,3.64,0,0,1-1.8-1.2,3.51,3.51,0,0,1-.7-1.5l-.3-1.3V13h-2.2Z"/><path class="cls-1" d="M500.65,20.72c0,.7.1,1.3.1,2a4.38,4.38,0,0,0,.2,2,6.31,6.31,0,0,0,.8,1.6,2.21,2.21,0,0,0,1.5.6,2.92,2.92,0,0,0,1.3-.3,1.6,1.6,0,0,0,.7-.9,2.89,2.89,0,0,0,.4-1.2c0-.4.1-.9.1-1.3h5.9a7,7,0,0,1-4.8,6.9,10.7,10.7,0,0,1-3.6.5,10.21,10.21,0,0,1-4.5-.8,6.16,6.16,0,0,1-2.5-2.3,10.39,10.39,0,0,1-1.2-3.5,33.9,33.9,0,0,1-.3-4.5,26.73,26.73,0,0,1,.3-4,13.13,13.13,0,0,1,1.1-3.4,9,9,0,0,1,2.5-2.3,14.68,14.68,0,0,1,4.6-.8,11.84,11.84,0,0,1,4.7.9,5.46,5.46,0,0,1,2.5,2.5,8.51,8.51,0,0,1,1.2,3.7c.1,1.6.2,3.1.2,4.6Zm5.3-3.2v-1.6a8.54,8.54,0,0,0-.2-1.6,5.13,5.13,0,0,0-.8-1.2,2.89,2.89,0,0,0-3.1,0,1.78,1.78,0,0,0-.8,1.3,2.3,2.3,0,0,0-.3,1.6c0,.5-.1,1-.1,1.5Z"/><path class="cls-1" d="M520.45,23.52a3.3,3.3,0,0,0,0,1.4,3.53,3.53,0,0,0,.3,1.1,1.41,1.41,0,0,0,.7.8l1.3.2a2.53,2.53,0,0,0,1.5-.5,1.71,1.71,0,0,0,.7-1.6,2.11,2.11,0,0,0-.7-1.8,6.76,6.76,0,0,0-2-1.3,12.68,12.68,0,0,0-2.4-1.1l-2.5-1.3a11.17,11.17,0,0,1-1.9-1.8,5.28,5.28,0,0,1-.7-2.8,6.81,6.81,0,0,1,.7-2.8,7.76,7.76,0,0,1,2-1.7,8.07,8.07,0,0,1,2.6-1L523,9a8.55,8.55,0,0,1,2.8.4,7.88,7.88,0,0,1,2.5,1.1,7.34,7.34,0,0,1,1.5,2,9.2,9.2,0,0,1,.5,2.9h-5.8a3.66,3.66,0,0,0-.5-2.7l-.6-.4h-.9a2,2,0,0,0-1.5.5,3.4,3.4,0,0,0-.5,1.7,1.61,1.61,0,0,0,.8,1.4,12.36,12.36,0,0,0,1.9,1.1l2.5,1.1,2.4,1.4a7.24,7.24,0,0,1,1.9,2,5.75,5.75,0,0,1,.8,2.8,6.6,6.6,0,0,1-.6,2.5,6.26,6.26,0,0,1-1.5,2,6.72,6.72,0,0,1-2.5,1.3,9.4,9.4,0,0,1-3.2.5,20.59,20.59,0,0,1-3.5-.3,4.71,4.71,0,0,1-2.6-1.1,3.42,3.42,0,0,1-1.6-2.1,6.35,6.35,0,0,1-.4-3.6Z"/><path class="cls-1" d="M65.26,44.75H62.45v-.86H69.1v.86H66.29V55.44h-1Z"/><path class="cls-1" d="M70.3,55.44V43.89h1v4.46h0a2.35,2.35,0,0,1,1.95-1.15c2,0,2.21,1.49,2.21,2.54v5.7h-1V49.79c0-.94-.37-1.82-1.49-1.82-.86,0-1.74.59-1.74,2.4v5.07Z"/><path class="cls-1" d="M78.15,51.6v.62c0,1.12.3,2.61,1.82,2.61A1.66,1.66,0,0,0,81.75,53h1A2.45,2.45,0,0,1,80,55.59c-1.39,0-2.78-.55-2.78-3v-2c0-2.34,1-3.41,2.78-3.41,2.79,0,2.79,2,2.79,4.4Zm3.65-.77C81.8,49,81.51,48,80,48S78.15,49,78.15,50.83Z"/><path class="cls-1" d="M93.5,43.89v.86H89.3v4.32h4v.87h-4v4.63h4.31v.87H88.27V43.89Z"/><path class="cls-1" d="M96.71,51.13l-2-3.77h1.15l1.47,3,1.6-3h1l-2.11,3.73,2.34,4.35H99.05l-1.78-3.51-1.85,3.51H94.35Z"/><path class="cls-1" d="M102.33,48.34l0,0a2.4,2.4,0,0,1,2-1.12c2.52,0,2.54,2.21,2.54,3.26v1.81c0,2.09-.72,3.32-2.78,3.32a2,2,0,0,1-1.68-1.05l0,0v4h-1V47.36h.93Zm0,3.77c0,1.84.83,2.72,1.71,2.72,1.58,0,1.82-1.33,1.82-3.44S105.65,48,104.07,48c-.62,0-1.71.7-1.71,2.7Z"/><path class="cls-1" d="M109.22,51.6v.62c0,1.12.3,2.61,1.82,2.61A1.65,1.65,0,0,0,112.81,53h1A2.44,2.44,0,0,1,111,55.59c-1.39,0-2.78-.55-2.78-3v-2c0-2.34,1-3.41,2.78-3.41,2.78,0,2.78,2,2.78,4.4Zm3.64-.77c0-1.79-.29-2.86-1.82-2.86s-1.82,1.07-1.82,2.86Z"/><path class="cls-1" d="M116.59,48.45h0a2.45,2.45,0,0,1,2.22-1.25v1a1.92,1.92,0,0,0-2.25,2.06v5.2h-1V47.36h1Z"/><path class="cls-1" d="M119.29,48.13v-.77h1.29V45.7l1-.42v2.08h1.63v.77h-1.63v5.18c0,1.07.12,1.33.88,1.33a4.91,4.91,0,0,0,.75,0v.83a8.76,8.76,0,0,1-.91,0c-1.29,0-1.68-.58-1.68-1.57V48.13Z"/><path class="cls-1" d="M124.66,45.11V43.89h1.19v1.22Zm.11,10.33V47.36h1v8.08Z"/><path class="cls-1" d="M130.15,55.59c-1.75,0-2.43-.84-2.42-2.55h1c0,1.1.25,1.84,1.48,1.84a1.26,1.26,0,0,0,1.38-1.43c0-2.11-3.63-1.56-3.63-4.23,0-1.49,1-2,2.43-2,1.6,0,2.11,1.1,2.11,2.34h-.94c0-1-.32-1.57-1.41-1.57a1.15,1.15,0,0,0-1.23,1.17c0,2,3.63,1.47,3.63,4.17A2.1,2.1,0,0,1,130.15,55.59Z"/><path class="cls-1" d="M135,51.6v.62c0,1.12.31,2.61,1.83,2.61A1.65,1.65,0,0,0,138.57,53h1a2.44,2.44,0,0,1-2.78,2.62c-1.39,0-2.78-.55-2.78-3v-2c0-2.34,1-3.41,2.78-3.41,2.78,0,2.78,2,2.78,4.4Zm3.65-.77c0-1.79-.29-2.86-1.82-2.86S135,49,135,50.83Z"/><path class="cls-1" d="M151.27,54.28a3.87,3.87,0,0,1-3.39,1.38c-1.52,0-3.06-.77-3.06-3.25,0-1.79.77-2.32,2.11-3.32-.78-1-1.47-1.55-1.47-2.88,0-1.77.88-2.54,2.66-2.54,1.44,0,2.35.57,2.35,2.44,0,1.54-1,2.23-2.11,3.12l2.71,3.29a15.33,15.33,0,0,0,.42-3.56h1a13.72,13.72,0,0,1-.67,4.45l1.66,2h-1.31Zm-3.73-4.51c-1.07.77-1.69,1.25-1.69,2.63a2.16,2.16,0,0,0,2.46,2.4,2.6,2.6,0,0,0,2.3-1.32Zm1.9-3.72c0-.93-.38-1.52-1.4-1.52A1.39,1.39,0,0,0,146.49,46a3.63,3.63,0,0,0,1.26,2.54A3.12,3.12,0,0,0,149.44,46.05Z"/><path class="cls-1" d="M160.25,44.75h-2.81v-.86h6.65v.86h-2.81V55.44h-1Z"/><path class="cls-1" d="M165.29,55.44V43.89h1v4.46h0a2.34,2.34,0,0,1,1.95-1.15c2,0,2.21,1.49,2.21,2.54v5.7h-1V49.79c0-.94-.37-1.82-1.49-1.82-.86,0-1.74.59-1.74,2.4v5.07Z"/><path class="cls-1" d="M173.14,51.6v.62c0,1.12.3,2.61,1.82,2.61A1.66,1.66,0,0,0,176.74,53h1A2.44,2.44,0,0,1,175,55.59c-1.39,0-2.78-.55-2.78-3v-2c0-2.34,1-3.41,2.78-3.41,2.78,0,2.78,2,2.78,4.4Zm3.64-.77C176.78,49,176.5,48,175,48s-1.82,1.07-1.82,2.86Z"/><path class="cls-1" d="M183.26,43.89h3.05c3.23,0,3.63,1.89,3.63,5.82s-.56,5.73-4,5.73h-2.64Zm1,10.68h1.25c3.09,0,3.39-.83,3.39-5.55,0-3.31-.45-4.27-3.29-4.27h-1.35Z"/><path class="cls-1" d="M192.13,45.11V43.89h1.19v1.22Zm.12,10.33V47.36h1v8.08Z"/><path class="cls-1" d="M196.1,48.13h-1.3v-.77h1.3V46c0-.77.11-2.17,2.06-2.17a5,5,0,0,1,.55.06v.8H198c-.93,0-.93.83-.93,1.3v1.37h1.63v.77h-1.63v7.31h-1Z"/><path class="cls-1" d="M200.54,48.13h-1.29v-.77h1.29V46a1.87,1.87,0,0,1,2.07-2.17,5.14,5.14,0,0,1,.54.06v.8h-.72c-.93,0-.93.83-.93,1.3v1.37h1.63v.77H201.5v7.31h-1Z"/><path class="cls-1" d="M205.12,51.6v.62c0,1.12.3,2.61,1.82,2.61A1.65,1.65,0,0,0,208.71,53h1a2.44,2.44,0,0,1-2.78,2.62c-1.39,0-2.78-.55-2.78-3v-2c0-2.34,1-3.41,2.78-3.41,2.78,0,2.78,2,2.78,4.4Zm3.64-.77c0-1.79-.29-2.86-1.82-2.86s-1.82,1.07-1.82,2.86Z"/><path class="cls-1" d="M212.49,48.45h0a2.45,2.45,0,0,1,2.22-1.25v1a1.92,1.92,0,0,0-2.25,2.06v5.2h-1V47.36h1Z"/><path class="cls-1" d="M216.66,51.6v.62c0,1.12.3,2.61,1.82,2.61A1.66,1.66,0,0,0,220.26,53h1a2.45,2.45,0,0,1-2.79,2.62c-1.39,0-2.78-.55-2.78-3v-2c0-2.34,1-3.41,2.78-3.41,2.79,0,2.79,2,2.79,4.4Zm3.65-.77c0-1.79-.29-2.86-1.83-2.86s-1.82,1.07-1.82,2.86Z"/><path class="cls-1" d="M224,55.44h-1V47.36h1v1h0A2.34,2.34,0,0,1,226,47.2c2,0,2.21,1.49,2.21,2.54v5.7h-1V49.79c0-.94-.37-1.82-1.49-1.82-.86,0-1.74.59-1.74,2.4Z"/><path class="cls-1" d="M233.7,49.68c.05-1-.32-1.71-1.42-1.71a1.31,1.31,0,0,0-1.29.93,10.78,10.78,0,0,0-.23,2.54c0,1.45,0,3.39,1.49,3.39,1.26,0,1.42-.8,1.47-1.78h1a2.15,2.15,0,0,1-2.21,2.54c-2.73,0-2.73-2.15-2.73-4.15a10.61,10.61,0,0,1,.24-2.67,2.33,2.33,0,0,1,2.43-1.57,2.09,2.09,0,0,1,2.25,2.48Z"/><path class="cls-1" d="M237.08,51.6v.62c0,1.12.3,2.61,1.82,2.61A1.66,1.66,0,0,0,240.68,53h1a2.44,2.44,0,0,1-2.78,2.62c-1.39,0-2.78-.55-2.78-3v-2c0-2.34,1-3.41,2.78-3.41,2.78,0,2.78,2,2.78,4.4Zm3.64-.77c0-1.79-.28-2.86-1.82-2.86s-1.82,1.07-1.82,2.86Z"/><path class="cls-1" d="M247.18,45.11V43.89h1.19v1.22Zm.11,10.33V47.36h1v8.08Z"/><path class="cls-1" d="M251.48,55.44h-1V47.36h1v1h0a2.35,2.35,0,0,1,2-1.15c2,0,2.2,1.49,2.2,2.54v5.7h-1V49.79c0-.94-.36-1.82-1.48-1.82-.87,0-1.75.59-1.75,2.4Z"/><path class="cls-1" d="M262.31,49.84v5.6h-1V43.89h3.19c2.22,0,2.78.74,2.78,2.77,0,1.44-.24,2.4-1.79,2.75v0c1.61.33,1.71.53,1.71,4.65,0,.45.08.9.11,1.35h-1c-.09-.34-.14-2.26-.16-2.88s.32-2.72-1.9-2.72Zm0-.86H264c1.54,0,2.25-.4,2.25-2.34,0-1.58-.62-1.89-1.82-1.89h-2.09Z"/><path class="cls-1" d="M269.92,51.6v.62c0,1.12.3,2.61,1.82,2.61A1.65,1.65,0,0,0,273.51,53h1a2.44,2.44,0,0,1-2.78,2.62c-1.39,0-2.78-.55-2.78-3v-2c0-2.34,1-3.41,2.78-3.41,2.78,0,2.78,2,2.78,4.4Zm3.64-.77c0-1.79-.28-2.86-1.82-2.86s-1.82,1.07-1.82,2.86Z"/><path class="cls-1" d="M279.86,49.68c.05-1-.32-1.71-1.42-1.71a1.33,1.33,0,0,0-1.3.93,11.52,11.52,0,0,0-.22,2.54c0,1.45,0,3.39,1.49,3.39,1.26,0,1.42-.8,1.47-1.78h1a2.15,2.15,0,0,1-2.21,2.54c-2.73,0-2.73-2.15-2.73-4.15a10.61,10.61,0,0,1,.24-2.67,2.33,2.33,0,0,1,2.43-1.57,2.09,2.09,0,0,1,2.25,2.48Z"/><path class="cls-1" d="M283.51,48.45h0a2.45,2.45,0,0,1,2.22-1.25v1a1.92,1.92,0,0,0-2.25,2.06v5.2h-1V47.36h1Z"/><path class="cls-1" d="M292,47.36v8.08h-.83v-.9h0a2.41,2.41,0,0,1-2,1.05c-1.66,0-2.13-1.21-2.13-2.52V47.36h1v5.55c0,.22,0,1.92,1.35,1.92a1.8,1.8,0,0,0,1.75-1.78V47.36Z"/><path class="cls-1" d="M294.24,45.11V43.89h1.18v1.22Zm.11,10.33V47.36h1v8.08Z"/><path class="cls-1" d="M296.86,48.13v-.77h1.29V45.7l1-.42v2.08h1.63v.77h-1.63v5.18c0,1.07.11,1.33.88,1.33a4.91,4.91,0,0,0,.75,0v.83a8.76,8.76,0,0,1-.91,0c-1.29,0-1.68-.58-1.68-1.57V48.13Z"/><path class="cls-1" d="M303,55.44h-1v-8.1h.86v1h0a2.19,2.19,0,0,1,1.92-1.15,1.88,1.88,0,0,1,1.84,1.26,2.13,2.13,0,0,1,2-1.26,2,2,0,0,1,2.1,2.22v6h-1V49.66c0-.8-.31-1.69-1.25-1.69-1.22,0-1.68,1.21-1.68,2.27v5.2h-1V49.66c0-.8-.3-1.69-1.25-1.69-1.21,0-1.67,1.21-1.67,2.27Z"/><path class="cls-1" d="M313.44,51.6v.62c0,1.12.3,2.61,1.82,2.61A1.66,1.66,0,0,0,317,53h1a2.44,2.44,0,0,1-2.78,2.62c-1.39,0-2.78-.55-2.78-3v-2c0-2.34,1-3.41,2.78-3.41,2.78,0,2.78,2,2.78,4.4Zm3.64-.77c0-1.79-.28-2.86-1.82-2.86s-1.82,1.07-1.82,2.86Z"/><path class="cls-1" d="M320.75,55.44h-1V47.36h1v1h0a2.32,2.32,0,0,1,2-1.15c2,0,2.2,1.49,2.2,2.54v5.7H324V49.79c0-.94-.37-1.82-1.49-1.82-.86,0-1.74.59-1.74,2.4Z"/><path class="cls-1" d="M326.17,48.13v-.77h1.29V45.7l1-.42v2.08h1.63v.77h-1.63v5.18c0,1.07.11,1.33.88,1.33a5,5,0,0,0,.75,0v.83a9.08,9.08,0,0,1-.91,0c-1.3,0-1.68-.58-1.68-1.57V48.13Z"/><path class="cls-1" d="M331.86,54.22H333l-.95,2.89h-.85Z"/><path class="cls-1" d="M339.56,49.84v5.6h-1V43.89h3.18c2.23,0,2.78.74,2.78,2.77,0,1.44-.23,2.4-1.79,2.75v0c1.62.33,1.71.53,1.71,4.65,0,.45.08.9.12,1.35h-1c-.09-.34-.14-2.26-.16-2.88s.32-2.72-1.9-2.72Zm0-.86h1.67c1.53,0,2.25-.4,2.25-2.34,0-1.58-.62-1.89-1.82-1.89h-2.1Z"/><path class="cls-1" d="M347.17,51.6v.62c0,1.12.31,2.61,1.83,2.61A1.65,1.65,0,0,0,350.77,53h1A2.44,2.44,0,0,1,349,55.59c-1.39,0-2.78-.55-2.78-3v-2c0-2.34,1-3.41,2.78-3.41,2.78,0,2.78,2,2.78,4.4Zm3.65-.77c0-1.79-.29-2.86-1.82-2.86s-1.83,1.07-1.83,2.86Z"/><path class="cls-1" d="M352.8,48.13v-.77h1.3V45.7l1-.42v2.08h1.63v.77h-1.63v5.18c0,1.07.11,1.33.88,1.33a5,5,0,0,0,.75,0v.83a9.08,9.08,0,0,1-.91,0c-1.3,0-1.68-.58-1.68-1.57V48.13Z"/><path class="cls-1" d="M358.72,51.6v.62c0,1.12.3,2.61,1.82,2.61A1.66,1.66,0,0,0,362.32,53h1a2.44,2.44,0,0,1-2.78,2.62c-1.39,0-2.78-.55-2.78-3v-2c0-2.34,1-3.41,2.78-3.41,2.78,0,2.78,2,2.78,4.4Zm3.64-.77c0-1.79-.28-2.86-1.82-2.86s-1.82,1.07-1.82,2.86Z"/><path class="cls-1" d="M366,55.44h-1V47.36h1v1h0A2.32,2.32,0,0,1,368,47.2c2,0,2.2,1.49,2.2,2.54v5.7h-.95V49.79c0-.94-.37-1.82-1.49-1.82-.87,0-1.74.59-1.74,2.4Z"/><path class="cls-1" d="M371.45,48.13v-.77h1.29V45.7l1-.42v2.08h1.63v.77H373.7v5.18c0,1.07.11,1.33.88,1.33a5,5,0,0,0,.75,0v.83a9.08,9.08,0,0,1-.91,0c-1.3,0-1.68-.58-1.68-1.57V48.13Z"/><path class="cls-1" d="M376.82,45.11V43.89H378v1.22Zm.11,10.33V47.36h1v8.08Z"/><path class="cls-1" d="M380,52.27V50.53c0-2.1.9-3.33,2.78-3.33s2.79,1.23,2.79,3.33v1.74c0,2.09-.9,3.32-2.79,3.32S380,54.36,380,52.27Zm1-.88c0,2.11.24,3.44,1.82,3.44s1.83-1.33,1.83-3.44S384.32,48,382.73,48,380.91,49.3,380.91,51.39Z"/><path class="cls-1" d="M388.22,55.44h-1V47.36h1v1h0a2.34,2.34,0,0,1,1.95-1.15c2,0,2.21,1.49,2.21,2.54v5.7h-1V49.79c0-.94-.37-1.82-1.49-1.82-.86,0-1.74.59-1.74,2.4Z"/><path class="cls-1" d="M394.88,54.22h1.17l-1,2.89h-.84Z"/><path class="cls-1" d="M407.85,54.28a3.85,3.85,0,0,1-3.39,1.38c-1.52,0-3-.77-3-3.25,0-1.79.77-2.32,2.11-3.32-.78-1-1.47-1.55-1.47-2.88,0-1.77.88-2.54,2.65-2.54,1.44,0,2.35.57,2.35,2.44,0,1.54-1,2.23-2.11,3.12l2.72,3.29a15.89,15.89,0,0,0,.42-3.56h1a13.51,13.51,0,0,1-.68,4.45l1.67,2h-1.31Zm-3.72-4.51c-1.07.77-1.7,1.25-1.7,2.63a2.17,2.17,0,0,0,2.46,2.4,2.62,2.62,0,0,0,2.31-1.32Zm1.9-3.72c0-.93-.38-1.52-1.41-1.52A1.39,1.39,0,0,0,403.07,46a3.63,3.63,0,0,0,1.26,2.54C405.21,47.9,406,47.23,406,46.05Z"/><path class="cls-1" d="M414.71,49.66c0-3.11,0-6,3.49-6C421,43.67,421,46,421,47h-1c0-1.28-.35-2.48-1.82-2.48-2.43,0-2.47,2.06-2.47,5.13s0,5.14,2.47,5.14c1.32,0,1.82-1.19,1.83-2.67h1.09c0,.83-.19,3.53-2.92,3.53C414.74,55.66,414.71,52.78,414.71,49.66Z"/><path class="cls-1" d="M426.94,54.44h0a2.58,2.58,0,0,1-2.29,1.15,2.13,2.13,0,0,1-2.22-2.38c0-2.83,2.85-2.54,4.48-2.67v-.67c0-1.18-.35-1.9-1.63-1.9-.88,0-1.59.43-1.59,1.39h-1c.08-1.55,1.28-2.16,2.69-2.16.81,0,2.51.08,2.51,2.14v4.07a18.47,18.47,0,0,0,.09,2h-1Zm-.06-3.13c-1.38,0-3.46-.11-3.46,1.85,0,.92.47,1.67,1.46,1.67a2.08,2.08,0,0,0,2-2Z"/><path class="cls-1" d="M430.89,48.45h0a2.46,2.46,0,0,1,2.23-1.25v1a1.93,1.93,0,0,0-2.26,2.06v5.2h-1V47.36h1Z"/><path class="cls-1" d="M435.06,51.6v.62c0,1.12.31,2.61,1.83,2.61A1.65,1.65,0,0,0,438.66,53h1a2.44,2.44,0,0,1-2.78,2.62c-1.39,0-2.79-.55-2.79-3v-2c0-2.34,1-3.41,2.79-3.41,2.78,0,2.78,2,2.78,4.4Zm3.65-.77c0-1.79-.29-2.86-1.82-2.86s-1.83,1.07-1.83,2.86Z"/><path class="cls-1" d="M442.16,51.6v.62c0,1.12.31,2.61,1.83,2.61A1.65,1.65,0,0,0,445.76,53h1A2.44,2.44,0,0,1,444,55.59c-1.4,0-2.79-.55-2.79-3v-2c0-2.34,1-3.41,2.79-3.41,2.78,0,2.78,2,2.78,4.4Zm3.65-.77c0-1.79-.29-2.86-1.82-2.86s-1.83,1.07-1.83,2.86Z"/><path class="cls-1" d="M449.53,48.45h0a2.44,2.44,0,0,1,2.22-1.25v1a1.93,1.93,0,0,0-2.26,2.06v5.2h-1V47.36h1Z"/><path class="cls-1" d="M456.73,43.89h3c3.23,0,3.63,1.89,3.63,5.82s-.56,5.73-4,5.73h-2.64Zm1,10.68H459c3.08,0,3.39-.83,3.39-5.55,0-3.31-.45-4.27-3.29-4.27h-1.35Z"/><path class="cls-1" d="M466.15,51.6v.62c0,1.12.3,2.61,1.82,2.61A1.65,1.65,0,0,0,469.74,53h1A2.44,2.44,0,0,1,468,55.59c-1.39,0-2.78-.55-2.78-3v-2c0-2.34,1-3.41,2.78-3.41,2.78,0,2.78,2,2.78,4.4Zm3.64-.77C469.79,49,469.5,48,468,48s-1.82,1.07-1.82,2.86Z"/><path class="cls-1" d="M474.65,54.22h0l2-6.86h.93l-2.4,8.08h-1.1l-2.4-8.08h1Z"/><path class="cls-1" d="M479.47,51.6v.62c0,1.12.3,2.61,1.82,2.61A1.65,1.65,0,0,0,483.06,53h1a2.44,2.44,0,0,1-2.78,2.62c-1.39,0-2.78-.55-2.78-3v-2c0-2.34,1-3.41,2.78-3.41,2.78,0,2.78,2,2.78,4.4Zm3.64-.77c0-1.79-.29-2.86-1.82-2.86s-1.82,1.07-1.82,2.86Z"/><path class="cls-1" d="M486.13,55.44V43.89h1V55.44Z"/><path class="cls-1" d="M489.15,52.27V50.53c0-2.1.9-3.33,2.79-3.33s2.78,1.23,2.78,3.33v1.74c0,2.09-.9,3.32-2.78,3.32S489.15,54.36,489.15,52.27Zm1-.88c0,2.11.24,3.44,1.83,3.44s1.82-1.33,1.82-3.44S493.52,48,491.94,48,490.11,49.3,490.11,51.39Z"/><path class="cls-1" d="M497.42,48.34l0,0a2.4,2.4,0,0,1,1.95-1.12c2.53,0,2.54,2.21,2.54,3.26v1.81c0,2.09-.71,3.32-2.78,3.32a2,2,0,0,1-1.68-1.05l0,0v4h-1V47.36h.93Zm0,3.77c0,1.84.83,2.72,1.71,2.72,1.59,0,1.83-1.33,1.83-3.44S500.75,48,499.16,48c-.62,0-1.71.7-1.71,2.7Z"/><path class="cls-1" d="M504.5,55.44h-1v-8.1h.87v1h0a2.18,2.18,0,0,1,1.92-1.15,1.89,1.89,0,0,1,1.84,1.26,2.12,2.12,0,0,1,2-1.26,2,2,0,0,1,2.09,2.22v6h-1V49.66c0-.8-.3-1.69-1.24-1.69-1.22,0-1.68,1.21-1.68,2.27v5.2h-1V49.66c0-.8-.31-1.69-1.25-1.69-1.21,0-1.68,1.21-1.68,2.27Z"/><path class="cls-1" d="M515,51.6v.62c0,1.12.3,2.61,1.82,2.61A1.65,1.65,0,0,0,518.57,53h1a2.44,2.44,0,0,1-2.78,2.62c-1.39,0-2.78-.55-2.78-3v-2c0-2.34,1-3.41,2.78-3.41,2.78,0,2.78,2,2.78,4.4Zm3.64-.77c0-1.79-.29-2.86-1.82-2.86S515,49,515,50.83Z"/><path class="cls-1" d="M522.28,55.44h-1V47.36h1v1h0a2.35,2.35,0,0,1,2-1.15c2,0,2.2,1.49,2.2,2.54v5.7h-1V49.79c0-.94-.37-1.82-1.48-1.82-.87,0-1.75.59-1.75,2.4Z"/><path class="cls-1" d="M527.7,48.13v-.77H529V45.7l1-.42v2.08h1.63v.77H530v5.18c0,1.07.11,1.33.88,1.33a5,5,0,0,0,.75,0v.83a9.08,9.08,0,0,1-.91,0c-1.3,0-1.68-.58-1.68-1.57V48.13Z"/></g></g></svg>